<?xml version="1.0" standalone="no"?>
<!DOCTYPE svg PUBLIC "-//W3C//DTD SVG 20010904//EN"
 "http://www.w3.org/TR/2001/REC-SVG-20010904/DTD/svg10.dtd">
<svg version="1.0" xmlns="http://www.w3.org/2000/svg"
 width="500.000000pt" height="500.000000pt" viewBox="0 0 500.000000 500.000000"
 preserveAspectRatio="xMidYMid meet">

<g transform="translate(0.000000,500.000000) scale(0.100000,-0.100000)"
fill="#000000" stroke="none">
<path d="M3135 4211 c-126 -32 -437 -111 -690 -176 -253 -64 -584 -148 -735
-186 -151 -39 -478 -122 -727 -184 -248 -62 -465 -121 -481 -129 -63 -32 -92
-129 -58 -194 8 -15 82 -93 165 -174 l152 -147 -38 -10 c-21 -6 -82 -22 -136
-35 -116 -30 -150 -51 -172 -111 -20 -51 -24 -30 57 -317 67 -239 82 -266 156
-289 39 -11 62 -7 391 77 l349 88 61 -56 c101 -94 250 -149 356 -134 31 5 587
143 693 172 l22 6 0 -493 c0 -477 1 -494 21 -535 15 -31 32 -48 63 -63 42 -21
55 -21 879 -21 l837 0 0 -237 c0 -219 2 -240 21 -279 21 -45 81 -84 129 -84
48 0 108 39 129 84 21 41 21 57 21 666 0 609 0 625 -21 666 -49 102 -196 108
-255 10 -17 -28 -19 -57 -22 -278 l-3 -248 -750 0 -749 0 0 443 0 443 48 13
c26 7 81 21 122 31 84 20 622 157 744 190 120 32 180 80 226 182 24 52 26 145
6 209 -8 24 -71 247 -141 494 -69 248 -134 469 -145 491 -43 95 -134 159 -240
169 -46 4 -95 -5 -285 -54z m275 -288 c7 -27 27 -100 45 -163 18 -63 51 -180
74 -260 22 -80 61 -215 86 -301 25 -86 45 -163 45 -171 0 -9 -10 -19 -22 -22
-47 -14 -432 -112 -948 -242 -294 -74 -622 -158 -727 -185 -106 -27 -205 -49
-221 -49 -58 0 -78 18 -611 543 -148 146 -256 259 -249 262 7 2 85 22 173 44
88 22 329 82 535 135 356 90 507 128 1390 352 206 53 377 97 379 100 2 2 12 4
21 4 12 0 21 -14 30 -47z m-2300 -1253 c0 -7 -331 -92 -337 -86 -9 8 -35 117
-30 122 3 3 63 21 134 39 l128 32 53 -50 c28 -28 52 -54 52 -57z"/>
</g>
</svg>
